frame:0    pts:60060   pts_time:1.001
lavfi.scene_score=0.863037
frame:1    pts:311311  pts_time:5.18852
lavfi.scene_score=0.307117
frame:2    pts:552552  pts_time:9.2092
lavfi.scene_score=0.289588
frame:3    pts:786786  pts_time:13.1131
lavfi.scene_score=0.283178
frame:4    pts:938938  pts_time:15.649
lavfi.scene_score=0.380367
frame:5    pts:1054053 pts_time:17.5676
lavfi.scene_score=0.315277
frame:6    pts:1208207 pts_time:20.1368
lavfi.scene_score=0.305874
frame:7    pts:1385384 pts_time:23.0897
lavfi.scene_score=0.265605
frame:8    pts:1783782 pts_time:29.7297
lavfi.scene_score=0.492308
frame:9    pts:2166164 pts_time:36.1027
lavfi.scene_score=0.487576
frame:10   pts:2712710 pts_time:45.2118
lavfi.scene_score=0.479330
frame:11   pts:2917915 pts_time:48.6319
lavfi.scene_score=0.357508
frame:12   pts:3298295 pts_time:54.9716
lavfi.scene_score=0.347333
frame:13   pts:3512509 pts_time:58.5418
lavfi.scene_score=0.533483
frame:14   pts:4322318 pts_time:72.0386
lavfi.scene_score=0.536039
frame:15   pts:4562558 pts_time:76.0426
lavfi.scene_score=0.522440
frame:16   pts:4819815 pts_time:80.3303
lavfi.scene_score=0.521413
frame:17   pts:5165160 pts_time:86.086
lavfi.scene_score=0.529209
frame:18   pts:5240235 pts_time:87.3372
lavfi.scene_score=0.451461
frame:19   pts:5376371 pts_time:89.6062
lavfi.scene_score=0.474482
frame:20   pts:5992987 pts_time:99.8831
lavfi.scene_score=0.496107
frame:21   pts:6304298 pts_time:105.072
lavfi.scene_score=0.412734
frame:22   pts:6517511 pts_time:108.625
lavfi.scene_score=0.376542
frame:23   pts:6638632 pts_time:110.644
lavfi.scene_score=0.479200
frame:24   pts:7144137 pts_time:119.069
lavfi.scene_score=0.470899
frame:25   pts:7275268 pts_time:121.254
lavfi.scene_score=0.431532
frame:26   pts:8003996 pts_time:133.4
lavfi.scene_score=0.474756
frame:27   pts:8240232 pts_time:137.337
lavfi.scene_score=0.471199
frame:28   pts:8472464 pts_time:141.208
lavfi.scene_score=0.358910
frame:29   pts:8738730 pts_time:145.645
lavfi.scene_score=0.351641
frame:30   pts:9938929 pts_time:165.649
lavfi.scene_score=0.467133
frame:31   pts:10101091 pts_time:168.352
lavfi.scene_score=0.424309
frame:32   pts:10536526 pts_time:175.609
lavfi.scene_score=0.361186
frame:33   pts:11154143 pts_time:185.902
lavfi.scene_score=0.352407
frame:34   pts:11466455 pts_time:191.108
lavfi.scene_score=0.496937
frame:35   pts:11883872 pts_time:198.065
lavfi.scene_score=0.278047
frame:36   pts:12276264 pts_time:204.604
lavfi.scene_score=0.325318
frame:37   pts:14425411 pts_time:240.424
lavfi.scene_score=0.436107
frame:38   pts:15211196 pts_time:253.52
lavfi.scene_score=0.256250
frame:39   pts:15602587 pts_time:260.043
lavfi.scene_score=0.428134
frame:40   pts:15947932 pts_time:265.799
lavfi.scene_score=0.252562
frame:41   pts:16326310 pts_time:272.105
lavfi.scene_score=0.501352
frame:42   pts:17683666 pts_time:294.728
lavfi.scene_score=0.309008
frame:43   pts:20189169 pts_time:336.486
lavfi.scene_score=0.275024
frame:44   pts:21835814 pts_time:363.93
lavfi.scene_score=0.263686
frame:45   pts:22433411 pts_time:373.89
lavfi.scene_score=0.312103
frame:46   pts:24916892 pts_time:415.282
lavfi.scene_score=0.324248
frame:47   pts:26273247 pts_time:437.887
lavfi.scene_score=0.350772
